
<svg width="743px" height="852px" viewBox="0 0 743 852" version="1.1" xmlns="http://www.w3.org/2000/svg" xmlns:xlink="http://www.w3.org/1999/xlink">
    <defs>
        <linearGradient x1="50%" y1="0%" x2="50%" y2="100%" id="linearGradient-0f--25ok8i-1">
            <stop stop-color="#B6FF9B" stop-opacity="0.843382935" offset="0%"></stop>
            <stop stop-color="#F4FFEA" offset="100%"></stop>
        </linearGradient>
        <filter x="-2.8%" y="-2.4%" width="105.5%" height="104.8%" filterUnits="objectBoundingBox" id="filter-0f--25ok8i-2">
            <feOffset dx="2" dy="2" in="SourceAlpha" result="shadowOffsetOuter1"></feOffset>
            <feGaussianBlur stdDeviation="4" in="shadowOffsetOuter1" result="shadowBlurOuter1"></feGaussianBlur>
            <feColorMatrix values="0 0 0 0 0.0890281788   0 0 0 0 0.0837415475   0 0 0 0 0.0837415475  0 0 0 0.5 0" type="matrix" in="shadowBlurOuter1" result="shadowMatrixOuter1"></feColorMatrix>
            <feMerge>
                <feMergeNode in="shadowMatrixOuter1"></feMergeNode>
                <feMergeNode in="SourceGraphic"></feMergeNode>
            </feMerge>
        </filter>
        <linearGradient x1="50.6171061%" y1="1.47306048%" x2="83.6865187%" y2="80.4112554%" id="linearGradient-0f--25ok8i-3">
            <stop stop-color="#6681FA" offset="0%"></stop>
            <stop stop-color="#2B5688" offset="100%"></stop>
        </linearGradient>
    </defs>
    <g id="bigD" stroke="none" stroke-width="1" fill="none" fill-rule="evenodd">
        <g id="Group" transform="translate(2.837612, 0.250000)">
            <polygon id="hex_outside" fill="#94C5FF" points="705.308027 195.085041 427.583619 34.7795053 367.300027 0 307.016435 34.7795053 29.2920272 195.085041 0 211.975088 0 636.025206 29.2920272 652.915253 310.41551 815.219611 367.300027 848.000294 424.184544 815.219611 705.308027 652.915253 734.600054 636.025206 734.600054 211.975088"></polygon>
            <polygon id="hex_inside" fill="url(#linearGradient-0f--25ok8i-1)" points="724.909104 631.450445 367.300027 837.848464 9.69095022 631.450445 9.69095022 218.548671 367.300027 12.1506524 724.909104 218.548671"></polygon>
            <g id="bigD_cutout" filter="url(#filter-0f--25ok8i-2)" transform="translate(3.324495, 6.382101)" fill="url(#linearGradient-0f--25ok8i-3)">
                <path d="M0.837892703,627.116546 L363.837893,835.846892 L726.837893,626.578307 L726.837893,209.116546 L363.837893,0 L0.837892703,209.116546 L0.837892703,627.116546 Z M-1.29896094e-14,430.649969 C-1.29896094e-14,569.249086 0.124126598,625.94819 0.276074675,556.649167 C0.428022751,487.349073 0.428022751,373.949795 0.276074675,304.650772 C0.124126598,235.350678 -1.29896094e-14,292.050852 -1.29896094e-14,430.649969 M301.935809,252.786185 C297.985159,253.646511 256.951688,278.243908 255.131521,280.842006 C253.524296,283.138348 253.177598,287.029075 252.689652,308.287895 C252.348304,323.100692 252.541984,334.588823 253.170107,336.863764 C254.459526,341.532422 258.696951,345.045419 263.039242,345.045419 C266.994172,345.045419 307.737658,321.910789 312.197655,317.131915 C315.504131,313.590027 315.907542,310.039578 313.524525,305.431913 C311.564181,301.641772 308.91579,300.10303 304.354138,300.10303 C301.273444,300.10303 298.042942,301.730587 275.280692,314.751039 C274.838759,315.003572 274.47815,310.187246 274.47815,304.04726 L274.47815,292.884426 L292.72262,282.41713 C302.756543,276.659154 311.951542,270.700007 313.155356,269.173036 C315.801606,265.815197 315.337202,259.162654 312.239387,256.064839 C309.961236,253.785618 304.833523,252.154851 301.935809,252.786185 M526.045312,266.731166 C512.335743,274.692389 505.753823,279.141686 504.38094,281.377035 C502.600366,284.273679 502.407755,287.232386 502.404545,311.688536 C502.787551,327.112524 503.073916,335.742591 503.26364,337.578736 C503.453364,339.41488 504.208164,340.861183 505.528041,341.917643 C508.905141,345.294742 513.510666,346.017031 517.719199,343.830904 C519.004338,343.163189 545.546028,327.926649 576.699664,309.972165 C607.8533,292.01768 634.109286,277.127839 635.045586,276.882796 C635.981885,276.637753 643.235801,280.211743 651.165993,284.823688 L665.583939,293.209724 L665.856803,405.165495 L666.128598,517.121266 L648.200865,527.435544 C638.340291,533.107915 629.188094,538.958986 627.864434,540.437805 C624.243362,544.47941 624.561168,550.835548 628.584582,554.858961 C633.870663,560.145042 636.25475,559.451646 660.355641,545.623301 C672.207591,538.824159 682.761503,531.664417 684.297787,530.390351 C685.321977,529.540974 686.21774,528.695145 686.985077,527.852866 L687.255801,406.220571 C687.516895,289.57367 687.446271,284.455588 685.55227,281.377035 C684.153706,279.104234 677.212247,274.495499 661.783097,265.593696 C643.953809,255.307239 639.217737,253.020527 635.737912,253.020527 C632.11256,253.020527 623.64413,257.552218 578.444927,283.679797 C549.274107,300.541753 525.045879,314.534887 524.603945,314.77458 C524.162012,315.014273 523.807823,310.246099 523.814243,304.178877 L523.828154,293.14766 L541.689543,282.98212 C551.513736,277.391073 560.656302,271.663058 562.007783,270.252723 C569.722893,262.199475 558.843625,248.315487 548.947739,253.585517 C547.182145,254.526097 536.876428,260.441372 526.045312,266.731166 Z M87.2149859,259.985528 C86.1727505,263.145406 86.2851065,264.338519 87.9351342,267.582931 C89.5733913,270.801662 92.9579812,273.210361 108.619334,282.296213 L127.345329,293.161571 L127.880357,340.063234 C127.022826,368.016675 127.119728,383.382845 128.171065,386.161742 C129.74807,390.330089 135.745217,392.000652 138.743155,392.000652 C141.741093,392.000652 147.684757,389.894427 148.746467,385.88414 C149.454273,383.210615 149.563419,367.041342 149.073904,337.376321 C149.284705,306.007604 149.00756,287.521301 148.288482,285.05803 C147.67748,282.962859 146.086305,280.248125 144.751944,279.02612 C143.417583,277.803045 133.060503,271.452257 121.736091,264.912069 C99.9871848,252.350672 95.9252489,251.0024 90.7483137,254.628823 C89.4856466,255.51376 87.8955421,257.923528 87.2149859,259.985528 Z M46.6876517,282.671803 C45.7748932,284.880401 45.52771,317.186488 45.7374412,406.755599 C45.0846455,484.627719 45.1791672,524.993475 46.0210062,527.852866 C47.2837648,532.141953 52.7446358,534.118932 56.2326191,534.118932 C59.7206024,534.118932 64.7751284,532.358893 65.6459128,528.006954 C66.5166973,523.655015 66.5928497,477.578384 66.8871154,416.575511 L67.4221438,305.659835 L76.7851415,311.131036 L86.1481392,316.603307 L86.1481392,384.896477 C86.1481392,457.75772 86.2230432,458.857739 91.337915,461.596014 C97.0306176,464.642466 99.9679238,463.40655 134.389513,443.490652 C152.698187,432.897089 167.879084,424.229628 168.125197,424.229628 C168.37024,424.229628 168.445144,439.916662 168.289985,459.088871 L168.00749,493.949184 L138.580926,510.968438 C122.396316,520.329296 108.776632,527.996254 108.314367,528.006954 C107.852103,528.016585 107.61134,523.095393 107.779339,517.070973 L108.084305,506.117871 L126.810301,495.286755 C142.619321,486.142049 145.841262,483.848917 147.4945,480.564912 C151.095241,473.410512 146.351679,465.961846 138.195706,465.961846 C133.552729,465.961846 92.3170171,489.529849 88.9163763,494.126813 C86.8286954,496.948553 86.6606964,498.76658 86.3460997,522.082049 C86.0721651,542.267602 86.3107878,547.743083 87.593786,550.815217 C89.6803969,555.808102 93.7327023,558.429741 98.2066101,557.682842 C101.158897,557.189545 176.429908,514.523167 184.834135,508.579001 C186.43815,507.444741 188.270087,504.735357 188.905701,502.557791 C189.682563,499.90084 189.954357,482.507066 189.734995,449.66702 C189.734995,417.857677 189.626206,401.547157 189.408628,400.735459 C189.082261,399.517912 188.608056,397.934167 185.78352,396.18885 C182.958983,394.443534 179.10505,392.777446 141.791097,414.385105 L108.084305,433.902942 L107.549277,370.432518 C107.074172,314.055502 106.818428,306.668899 105.265775,304.335105 C104.297374,302.881968 93.7380526,296.092457 81.6250088,289.134947 C58.7707339,276.008559 55.0373055,274.70202 50.1514258,278.124062 C48.9251406,278.983317 47.3660677,281.030336 46.6876517,282.671803 Z M584.191133,335.960636 C585.067509,340.631434 590.233744,345.053979 594.775065,345.019738 C596.992223,345.002617 602.627143,342.42378 611.011038,337.589263 L623.851721,330.184469 L624.125655,411.67144 C624.342877,475.99684 624.117095,493.416296 623.055598,494.383627 C621.895657,495.440843 562.89379,529.732956 556.140662,533.273774 C553.999478,534.397334 552.606264,533.929719 544.64504,529.416219 C539.662856,526.591269 535.582729,523.988891 535.579519,523.634702 C535.575238,523.279443 549.657187,514.899827 566.871192,505.012502 C584.085197,495.125176 599.497226,485.813541 601.119432,484.317602 C602.741639,482.822732 604.544684,479.886496 605.126795,477.793465 C606.289947,473.604192 606.638786,386.049998 605.514156,380.42685 C605.139636,378.55211 603.51529,375.72288 601.903784,374.140265 C597.619276,369.927451 557.537086,347.185533 554.398609,347.185533 C552.927281,347.185533 550.4608,347.761223 548.917778,348.464251 C543.141611,351.09552 543.062426,351.803898 543.062426,400.94519 L543.062426,446.251398 L533.699429,451.723669 L524.336431,457.19594 L523.801403,417.082718 C523.857933,391.248843 523.67959,377.560676 523.266374,376.018215 C522.64655,373.704525 517.114617,370.726784 513.566308,370.726784 C510.018,370.726784 504.891357,373.422257 503.502424,376.018215 C502.790836,377.347226 502.400265,396.123514 502.400265,429.011712 C502.400265,485.523556 502.205515,483.933451 509.426258,486.316468 C511.429405,486.976693 514.087426,487.193915 515.335113,486.797994 C519.377787,485.514996 559.761734,461.781134 561.876166,459.4452 C563.809759,457.310436 563.945656,454.868567 564.233502,417.162972 C564.400431,395.154042 564.881956,377.168526 565.303559,377.194208 C565.724091,377.220959 569.920854,379.548333 574.629104,382.367933 L583.189559,387.493505 L583.189559,428.952859 L583.189559,470.412213 L545.20254,492.320557 C524.30968,504.370468 506.132623,515.433786 504.807893,516.906184 C501.515328,520.567919 501.515328,527.246144 504.807893,530.507677 C507.806192,533.477085 546.423475,555.7653 551.011879,557.172424 C555.681607,558.606301 556.799817,558.062712 597.887861,534.396264 C643.317125,508.228023 643.613531,508.037553 645.390896,503.783007 C646.59685,500.898133 646.858574,483.184412 646.858574,404.414315 C646.858574,301.437391 646.994911,304.109323 641.566512,301.205189 C636.155235,298.308545 632.018395,299.839796 609.285036,313.152374 C585.401367,327.139087 582.953077,329.363735 584.191133,335.960636 Z M170.084471,363.209634 C170.989739,364.844681 178.655626,369.989515 190.110585,376.648479 L208.669652,387.438932 L208.669652,452.586135 L208.669652,517.733338 L190.110585,528.523792 C178.655626,535.182756 170.989739,540.327589 170.084471,541.962636 C166.077108,549.202641 171.264744,557.986738 179.549124,557.986738 C182.501411,557.986738 224.103082,534.204724 227.530474,530.5569 L230.070789,527.853936 L230.359705,453.142565 C230.763452,403.947971 230.85373,379.043493 230.630539,378.429132 C230.407348,377.814771 229.511317,376.743974 227.942446,375.216743 C224.508634,371.135546 182.810657,347.172692 179.231317,347.222514 C177.766409,347.244386 175.417634,347.899261 174.010509,348.679332 C168.980172,351.46683 167.210298,358.017718 170.084471,363.209634 Z M294.835982,352.485524 C294.122254,353.818815 293.739174,376.440888 293.739174,417.186514 C293.007968,456.620043 293.007968,477.503986 293.739174,479.838344 C294.835982,483.33988 299.651581,486.812007 304.192902,486.812007 C308.734223,486.812007 312.734823,483.919541 314.118407,480.282417 C315.707441,476.101705 315.466679,356.563511 313.861593,353.040884 C311.452895,347.754803 304.465424,345.805159 298.848695,348.853751 C297.24468,349.723708 295.439494,351.358754 294.835982,352.485524 Z M340.703334,373.659388 C338.412587,375.326847 337.203635,376.505477 337.076477,377.195278 C336.94932,377.885079 336.94932,403.052816 337.076477,452.698491 L337.076477,528.200634 L340.286648,531.066247 C344.348584,534.69267 382.110891,556.51969 385.978077,557.477391 C389.332705,558.306685 395.728435,555.621912 408.591589,547.982776 C413.201394,545.24557 417.173445,543.005941 417.419558,543.005941 C417.664601,543.005941 417.865772,547.960305 417.865772,554.015757 L417.865772,565.025572 L399.831033,575.427595 C389.911606,581.149189 381.040834,586.667472 380.118445,587.691517 C374.070484,594.401843 379.007726,605.094922 388.134241,605.054261 C392.547156,605.032858 434.371399,581.153469 437.624372,576.797268 C439.681021,574.041871 439.801938,572.369372 439.801938,546.585282 C440.031103,529.519229 440.031103,520.420536 439.801938,519.289201 C439.458189,517.592198 438.670737,516.837421 436.409768,515.486088 C434.148799,514.134756 428.160789,511.696077 407.135241,523.865834 L388.439207,534.687319 L383.088923,531.755363 C380.146267,530.142788 373.280782,526.206048 367.832052,523.006578 L357.926535,517.189749 L358.20154,452.408506 L358.477615,387.626192 L376.668582,377.086132 C386.673614,371.289634 395.702753,365.508117 396.732148,364.237959 C399.77432,360.48741 399.191139,354.028546 395.476971,350.313309 C390.157719,344.994056 387.73939,345.698154 363.796868,359.536129 C352.043363,366.32885 342.174662,372.19876 340.703334,373.659388 Z M379.878752,399.076871 C377.808192,401.823707 377.738639,403.57539 377.738639,453.113673 L377.738639,504.311615 L380.317476,507.056311 C381.735301,508.566161 384.527079,510.107043 386.520595,510.481563 C389.744677,511.086145 392.469042,509.832038 411.228209,499.103648 C422.824415,492.471435 433.63841,485.819962 435.260616,484.322952 C436.882822,482.824873 438.685868,479.886496 439.267979,477.793465 C439.84902,475.700434 440.327335,463.634472 440.329476,450.98105 C440.333756,424.591307 439.642499,421.685033 432.742772,419.090145 C429.432016,417.845669 428.342698,417.87456 424.946338,419.293456 C418.598761,421.945056 417.865772,425.053572 417.865772,449.299991 L417.865772,470.159679 L408.737116,475.550626 C403.716409,478.516824 399.382679,480.942642 399.106604,480.942642 C398.83053,480.942642 398.604748,465.365825 398.604748,446.326302 L398.604748,411.709962 L428.550289,394.428544 C445.020605,384.924299 458.746225,377.147125 459.052261,377.147125 C459.358297,377.147125 459.485634,424.687612 459.335826,482.793841 L459.062961,588.440557 L423.751084,608.953547 L388.439207,629.466537 L384.15898,627.096361 C381.804855,625.793032 374.94258,621.886254 368.910669,618.41499 L357.942586,612.103794 L357.942586,590.342048 C357.942586,566.658479 357.365826,563.811057 352.087235,561.405569 C348.538927,559.788714 345.945109,559.788714 342.3968,561.405569 C336.990873,563.86884 336.541449,566.373844 336.541449,594.064775 C336.541449,616.600173 336.765091,619.965502 338.476112,623.155342 C340.027694,626.047706 344.390316,629.060986 360.528914,638.386531 L380.648123,650.011629 C384.647187,651.95478 387.244215,652.926355 388.439207,652.926355 C389.6342,652.926355 392.035764,651.95478 395.6439,650.011629 L434.844364,627.410958 C456.40387,614.981177 474.953306,604.025935 476.064025,603.067164 C481.123254,598.702402 480.999127,601.931834 480.999127,474.449537 C481.364449,397.208086 481.364449,357.53168 480.999127,355.42032 C480.633806,353.308961 479.492213,351.585011 477.574346,350.248472 C474.860682,347.534808 472.812122,347.193023 470.13805,347.215486 C467.438297,347.239035 456.112815,353.297698 424.286113,371.742268 C399.948739,385.846688 381.111458,397.441824 379.878752,399.076871 Z M255.660603,374.811277 C253.22361,379.180348 253.22361,380.858095 252.953956,463.991871 C252.693807,544.19506 252.835179,550.50169 254.551551,553.122259 C256.477653,556.061705 260.211081,557.986738 263.984102,557.986738 C267.054095,557.986738 308.593703,533.93935 312.197655,530.075374 C318.515271,523.304054 313.360807,512.997266 303.690703,513.06575 C301.95186,513.077521 295.306807,516.219208 287.853861,520.551868 L275.013178,528.017655 L274.47815,453.337315 C273.979503,383.714064 273.568487,377.553833 271.770792,374.811277 C268.852747,370.35984 258.097596,370.442205 255.660603,374.811277 Z" id="Shape"></path>
            </g>
        </g>
    </g>
</svg>
